<?xml version="1.0" encoding="utf-8"?>
<!-- Generator: Adobe Illustrator 22.1.0, SVG Export Plug-In . SVG Version: 6.00 Build 0)  -->
<svg version="1.1" id="Layer_1" xmlns="http://www.w3.org/2000/svg" xmlns:xlink="http://www.w3.org/1999/xlink" x="0px" y="0px"
	 viewBox="0 0 16 20" style="enable-background:new 0 0 16 20;" xml:space="preserve">
<path d="M2.1,8c-0.2,0.2-0.2,0.5,0,0.7c1.3,1.3,2.6,2.6,3.8,3.9c0.1,0.1,0.2,0.2,0.4,0.2c0,0,0,0,0,0c0.1,0,0.3-0.1,0.4-0.2
	c2.4-3,4.8-5.8,7.3-8.4c0.2-0.2,0.2-0.5,0-0.7c-0.2-0.2-0.5-0.2-0.7,0c-2.3,2.5-4.6,5.2-6.9,8C5.1,10.3,4,9.1,2.8,7.9
	C2.6,7.8,2.3,7.8,2.1,8z"/>
</svg>
