<svg xmlns="http://www.w3.org/2000/svg" viewBox="0 0 786.06 187.55"><defs><style>.cls-1{fill:#9d1d96;}</style></defs><title>Asset 2</title><g id="Layer_2" data-name="Layer 2"><g id="Layer_1-2" data-name="Layer 1"><path class="cls-1" d="M252.46,135.32c-9.83,0-19.65-2.64-25.52-5.72l6.45-15.25c4,2.49,12.76,5.13,18.48,5.13,7.19,0,11.89-3.37,11.89-8.65,0-5.87-5.14-8.36-12.18-10.86-10-3.66-22.59-8.36-22.59-23.91,0-13.93,10.56-23.32,29.05-23.32a51.43,51.43,0,0,1,24.34,5.72L276.22,72.1c-3.37-2-10.41-4.54-15.69-4.54-7,0-11.15,3.52-11.15,8.21,0,6,5.13,8.36,12,10.86,10.41,3.81,23.17,8.21,23.17,24.2C284.58,125.64,273.58,135.32,252.46,135.32Z"/><path class="cls-1" d="M332.55,135.32c-21.86,0-33.3-8.8-33.3-29.33V54.5H319.2v51.93c0,8.51,4.55,12.47,13.35,12.47a34.07,34.07,0,0,0,11.58-1.76V54.5h19.95v75.1C357.19,133,344.87,135.32,332.55,135.32Z"/><path class="cls-1" d="M410,135.32c-11,0-21.56-2.64-28-5.72V18.42h19.94v37.7a37.31,37.31,0,0,1,13.94-2.64c20.53,0,34.47,14.22,34.47,38.43C450.33,121.54,435.22,135.32,410,135.32ZM412,68.73a26,26,0,0,0-10.12,2V118a25,25,0,0,0,9.24,1.61c11.45,0,19.07-8.66,19.07-26.11C430.23,78,423.34,68.73,412,68.73Z"/><path class="cls-1" d="M486.55,135.32c-9.82,0-19.65-2.64-25.52-5.72l6.46-15.25c4,2.49,12.76,5.13,18.48,5.13,7.18,0,11.88-3.37,11.88-8.65,0-5.87-5.14-8.36-12.18-10.86-10-3.66-22.59-8.36-22.59-23.91,0-13.93,10.57-23.32,29.05-23.32a51.5,51.5,0,0,1,24.35,5.72L510.32,72.1c-3.38-2-10.42-4.54-15.7-4.54-7,0-11.15,3.52-11.15,8.21,0,6,5.14,8.36,12,10.86,10.42,3.81,23.18,8.21,23.18,24.2C518.68,125.64,507.68,135.32,486.55,135.32Z"/><path class="cls-1" d="M565.91,135.32c-18.49,0-35.35-13.2-35.35-41.36s16.86-41.22,35.35-41.22c9.38,0,16,2.06,21,5.43l-6.31,14.37c-2.93-2.2-7.18-3.37-11.73-3.37-9.83,0-17.6,8.21-17.6,24.64s8.06,24.65,17.6,24.65a19.86,19.86,0,0,0,11.73-3.52l6.31,15C581.75,133.27,575.29,135.32,565.91,135.32Z"/><path class="cls-1" d="M632.35,135.32c-23.76,0-35.65-9.38-35.65-25.52,0-21.56,22.45-25.81,46.36-27.13V78.56c0-8.22-5.72-11.3-14.82-11.3A63.83,63.83,0,0,0,606.09,72l-5-13.5a81.22,81.22,0,0,1,29.33-5.72c20.24,0,31.54,7.92,31.54,28.17V129.6C656.11,132.68,644.23,135.32,632.35,135.32Zm10.71-39.89c-14.67.73-27.58,2-27.58,13.93,0,7.48,5.87,11.74,16.28,11.74,4.26,0,9.24-.74,11.3-1.62Z"/><path class="cls-1" d="M680,133.56V18.42h20V133.56Z"/><path class="cls-1" d="M785.77,95.43l-50.9,6.89c1.76,11.59,10.27,17.31,21.86,17.31,7.92,0,16.43-2,22-5l5.72,15c-6.6,3.38-17.75,5.72-29.19,5.72-26.11,0-39.9-17-39.9-41.36,0-24.2,13.64-41.22,36.67-41.22,21.86,0,34,14.38,34,35.94A53.75,53.75,0,0,1,785.77,95.43ZM751.59,67.26c-10.41,0-17.75,7.63-18,22.45l33.15-4.55C766.7,73.28,760.83,67.26,751.59,67.26Z"/><path class="cls-1" d="M90.19,127.46c9.82-9.82,3.69-18.49,1-21.41l-1-1h0L78.92,93.73c-4.38-4.62-20.46-24.37,1-45.85l8.78-8.79,34.41-34.4h0c-1.07-.36-2.16-.69-3.24-1l-1.13-.31c-.72-.2-1.45-.4-2.18-.58l-1.37-.33-2-.44-1.5-.3-1.89-.34c-.52-.09-1-.19-1.58-.27L106.38.86,104.75.64,102.84.45c-1-.1-2-.18-3.07-.24L98.08.1h-.14c-.3,0-.61,0-.91,0C96,0,94.87,0,93.78,0h0c-1.18,0-2.36,0-3.53.07l-.7,0c-1.13,0-2.27.12-3.39.21l-.6,0c-1.09.1-2.17.21-3.25.34l-.3,0c-1.14.15-2.27.31-3.39.5l-.65.1c-1.12.19-2.23.4-3.34.63L74.28,2c-1.07.22-2.14.47-3.19.73l-.4.1c-1.1.28-2.19.57-3.27.89l-.54.16c-1.93.58-3.82,1.21-5.69,1.9L60.6,6l-1.8.7L58.1,7c-.56.23-1.13.47-1.69.72-.23.1-.46.19-.68.3-.6.26-1.19.53-1.78.81l-.53.25c-1.55.74-3.07,1.51-4.57,2.33l-.41.23-1.78,1-.62.37L44.48,14l-.65.41c-.52.33-1,.66-1.55,1l-.57.38c-.61.4-1.22.82-1.82,1.24l-.25.17c-.7.5-1.4,1-2.09,1.53l-.14.11-1.84,1.42-.51.41-1.44,1.18-.58.49-1.36,1.18-.55.49-1.45,1.33-.39.37q-1.84,1.74-3.59,3.59l-.37.39c-.45.48-.89,1-1.33,1.45l-.49.55c-.4.45-.79.9-1.18,1.36l-.49.58-1.18,1.44-.41.51L18.83,37.4l-.11.15c-.52.69-1,1.39-1.52,2.09l-.19.27q-.63.89-1.23,1.8l-.38.57c-.34.51-.67,1-1,1.55l-.4.65c-.32.51-.64,1-.95,1.56l-.37.62c-.34.59-.67,1.18-1,1.77l-.24.42c-.82,1.5-1.59,3-2.33,4.57-.09.18-.17.36-.25.53q-.42.88-.81,1.77c-.11.23-.21.47-.31.7C7.5,57,7.26,57.53,7,58.1l-.29.71c-.24.59-.47,1.19-.69,1.78-.08.2-.16.4-.23.6-.29.79-.58,1.59-.85,2.39H5c-.32.93-.62,1.87-.91,2.82,0,.15-.09.3-.14.46-.25.85-.49,1.71-.73,2.58,0,.08,0,.17-.07.26-.53,2-1,4-1.39,6.1h0c-.14.72-.28,1.45-.4,2.18v0c-.13.72-.24,1.44-.35,2.17v.09c-.1.7-.19,1.4-.28,2.11l0,.23c-.07.66-.15,1.32-.21,2,0,.14,0,.29,0,.43-.06.6-.11,1.2-.15,1.81,0,.24,0,.49-.05.73,0,.52-.07,1-.09,1.54s0,.79,0,1.19,0,.75,0,1.12c0,.79,0,1.57,0,2.35,0,1,0,1.92.05,2.88,0,.44,0,.87.05,1.31s0,1,.08,1.46.07,1.14.12,1.7c0,.34,0,.67.08,1,0,.63.11,1.25.18,1.88l0,.29h0c0,.17.05.34.06.51.08.65.16,1.29.25,1.93,0,.19,0,.37.08.55.19,1.34.41,2.68.67,4l.09.54c.1.5.21,1,.31,1.48s.19.87.28,1.3.2.86.31,1.29.25,1,.38,1.51.19.75.29,1.12l.51,1.8c.09.27.16.55.25.82.27.9.55,1.79.85,2.67h0c.31.93.64,1.84,1,2.75,0,.12.1.24.14.36.3.78.6,1.56.91,2.32l.36.84c.25.6.5,1.2.77,1.8l.48,1,.72,1.53c.19.4.39.79.58,1.18l.7,1.37c.21.41.44.82.66,1.23s.45.85.69,1.26l.72,1.26.71,1.21.76,1.24c.13.21.26.44.4.65h0l.36.56.72,1.1.85,1.26.72,1,1,1.32c.23.3.45.61.68.92.37.49.74,1,1.12,1.45l.58.74c.49.62,1,1.24,1.51,1.84l.25.3c1.23,1.45,2.51,2.87,3.82,4.24l.35.35c.43.44.85.89,1.29,1.32h0l.34.33.51.5,1.52,1.44.62.56c.48.44,1,.88,1.47,1.31l.69.59c.48.42,1,.82,1.45,1.22l.75.61c.48.39,1,.77,1.46,1.15l.78.6,1.49,1.1.78.57,1.63,1.12.69.47c.78.52,1.57,1,2.36,1.53l45.93-45.93Z"/><path class="cls-1" d="M187.5,90.9c0-.44,0-.88-.05-1.31s0-1-.08-1.46-.07-1.14-.12-1.71c0-.33-.05-.66-.08-1,0-.64-.12-1.27-.18-1.9l0-.28h0c0-.17-.05-.34-.07-.5q-.1-1-.24-2c0-.17-.05-.35-.08-.53-.19-1.36-.42-2.71-.67-4l-.09-.51c-.1-.5-.21-1-.32-1.49l-.27-1.29c-.1-.43-.21-.86-.31-1.3s-.25-1-.38-1.5-.19-.75-.29-1.12l-.51-1.79c-.09-.28-.16-.56-.25-.84-.27-.89-.55-1.78-.85-2.66h0c-.31-.92-.64-1.84-1-2.75-.05-.14-.11-.27-.16-.41-.29-.76-.58-1.52-.89-2.27l-.37-.87c-.25-.59-.5-1.18-.76-1.76-.16-.37-.33-.72-.49-1.08s-.47-1-.71-1.51-.39-.79-.59-1.19-.45-.9-.69-1.35-.44-.84-.66-1.25L175.64,48c-.24-.43-.48-.85-.73-1.27s-.46-.8-.7-1.19-.5-.84-.76-1.25l-.4-.65h0l-.36-.55c-.24-.37-.48-.74-.73-1.11s-.56-.84-.84-1.25l-.72-1c-.31-.44-.63-.87-1-1.31l-.68-.93L167.66,36l-.59-.75c-.49-.62-1-1.22-1.49-1.82l-.27-.32c-1.23-1.45-2.51-2.86-3.82-4.24l-.36-.36c-.42-.44-.85-.88-1.28-1.31h0l-.34-.33-.52-.5c-.5-.49-1-1-1.51-1.44l-.62-.56c-.49-.44-1-.88-1.47-1.31l-.7-.6c-.47-.41-.95-.81-1.44-1.21l-.75-.61c-.48-.39-1-.77-1.45-1.14l-.79-.61-1.48-1.09-.8-.58c-.53-.38-1.06-.74-1.6-1.11l-.72-.49c-.76-.5-1.53-1-2.31-1.49l0,0h0L121,36.42,101,56.5h0l-4.63,4.63c-2.66,2.92-8.78,11.59,1,21.42h0L101,86.13l6.66,6.67h0c21.49,21.48,5.38,41.25,1,45.86l-1,1h0L64.42,182.86c1.08.35,2.17.68,3.26,1l1.12.31,2.19.58,1.37.32,2,.45,1.49.3,1.9.34,1.57.27,1.87.26,1.62.21c.65.08,1.29.14,1.94.2,1,.1,2,.17,3,.24l1.73.11h.14l.91,0c1.08,0,2.16.07,3.25.07h0c1.19,0,2.37,0,3.54-.07l.7,0c1.13,0,2.27-.12,3.39-.21l.6-.05c1.09-.1,2.17-.21,3.24-.34l.31,0c1.14-.14,2.27-.31,3.39-.49l.65-.11c1.12-.19,2.23-.39,3.34-.62l.35-.08c1.07-.22,2.13-.47,3.18-.73l.4-.1c1.1-.28,2.19-.58,3.27-.89l.55-.16q2.88-.87,5.68-1.9l.59-.23c.6-.22,1.2-.46,1.79-.69l.71-.29c.56-.24,1.13-.47,1.68-.72l.69-.3q.9-.39,1.77-.81l.54-.25q2.33-1.11,4.57-2.33l.41-.24,1.78-1,.62-.37,1.56-.95.65-.4c.52-.33,1-.66,1.55-1l.57-.38c.61-.41,1.22-.82,1.81-1.24l.26-.18c.7-.5,1.4-1,2.09-1.52l.14-.11c.62-.46,1.23-.94,1.84-1.42l.51-.41,1.44-1.18.58-.49,1.36-1.18.55-.49,1.45-1.33.39-.37q1.85-1.74,3.59-3.59l.37-.39c.45-.48.89-1,1.33-1.45.16-.18.32-.37.49-.55.39-.45.79-.9,1.18-1.36l.49-.58,1.18-1.44.41-.51c.48-.61,1-1.22,1.42-1.84l.11-.14c.51-.69,1-1.39,1.52-2.09l.18-.26c.42-.6.84-1.2,1.24-1.81l.38-.57c.34-.51.67-1,1-1.55l.4-.65c.32-.52.64-1,.95-1.56l.36-.62c.35-.59.68-1.18,1-1.77l.24-.42q1.21-2.25,2.33-4.57c.09-.18.17-.36.25-.54.28-.58.55-1.17.81-1.76l.3-.7c.25-.56.48-1.12.72-1.68l.29-.71c.23-.59.47-1.19.69-1.79.08-.2.16-.39.23-.59.29-.79.58-1.59.85-2.39h0c.32-.93.62-1.87.91-2.82,0-.15.09-.3.13-.46.26-.85.5-1.71.74-2.58a2.5,2.5,0,0,1,.07-.26,94.86,94.86,0,0,0,2.14-10.48v-.06c.11-.71.2-1.42.29-2.13,0-.07,0-.14,0-.21.08-.67.16-1.34.22-2,0-.14,0-.28,0-.43.05-.6.11-1.2.15-1.81,0-.24,0-.48.05-.72,0-.52.07-1,.09-1.56s0-.77,0-1.15,0-.77,0-1.16c0-.78,0-1.56,0-2.35h0C187.55,92.81,187.53,91.86,187.5,90.9Z"/></g></g></svg>